<svg width="24" height="24" viewBox="0 0 24 24" fill="none" xmlns="http://www.w3.org/2000/svg">
<path d="M12 15L9 18M12 15L13.5 21.5L15 18M12 15C14.5 13.5 18 10 18 6C18 4 17 3 15 3C11 3 7.5 6.5 6 9M9 18L7.5 21.5L6 18M9 18C7.5 16.5 4 13 4 9C4 7 5 6 7 6C10 6 12.5 8.5 14 11" stroke="currentColor" stroke-width="2" stroke-linecap="round" stroke-linejoin="round"/>
<path d="M14 7C14 8.10457 13.1046 9 12 9C10.8954 9 10 8.10457 10 7C10 5.89543 10.8954 5 12 5C13.1046 5 14 5.89543 14 7Z" stroke="currentColor" stroke-width="2"/>
</svg>
